<svg width="74" height="73" viewBox="0 0 74 73" fill="none" xmlns="http://www.w3.org/2000/svg">
<path d="M63.7871 18.9453C64.5524 18.9301 65.329 18.9579 66.083 19.0977C68.1174 19.475 69.8233 20.5781 70.9854 22.2871C72.5614 24.6053 73.8196 28.3206 73.2471 31.1416C72.3862 35.3817 66.7848 36.2853 63.2324 36.6074C61.3281 36.7801 58.4555 36.5897 56.8574 37.6846C54.7193 39.1495 54.9402 41.206 54.9326 43.4775C54.929 44.5615 54.8694 45.6423 54.6738 46.71C54.297 48.7666 53.3766 50.4885 51.9736 52.0312C46.3202 58.248 39.5814 54.1097 36.1182 56.5371C31.8146 59.5539 34.435 62.4069 33.7852 66.1738C33.4687 68.0073 32.4185 69.8312 30.8838 70.9043C28.8509 72.3258 26.1948 72.3948 23.835 71.9854C19.6228 71.1208 13.961 66.0841 13.8604 61.8906C13.7083 55.5418 18.8774 54.1226 24.1162 54.5576C25.8268 54.6997 28.5251 54.4758 30.1963 54.4199C35.9892 54.2261 34.2841 49.0298 34.8457 45.2461C35.1382 43.1505 35.9939 41.3581 37.3857 39.7812C41.2787 35.3709 45.4006 35.8778 50.6924 35.8545C58.0319 35.8222 52.6375 25.6965 56.9453 21.8467C59.4704 19.5901 60.2518 19.1576 63.7871 18.9453ZM63.1221 54.5039C64.0266 54.317 65.515 54.5779 66.2324 55.1318C69.1656 57.3972 67.3999 62.6012 65.6143 65.0371C63.4277 68.0199 60.8349 69.2202 57.3096 69.7959C54.9946 70.0562 52.4433 68.7698 52.3945 66.3096C52.2662 59.8223 57.0052 55.1015 63.1221 54.5039ZM44.6025 0.0205078C48.4748 -0.30162 54.5721 3.23661 56.3281 6.74316C57.6479 9.37909 55.7072 14.7552 53.167 16.2637C51.0224 17.5371 47.9088 17.8406 45.4609 17.8955C43.9413 17.9295 42.2341 17.7642 40.8213 18.4688C37.8694 20.0169 38.552 23.2335 38.4307 25.9648C38.2925 29.1629 37.1353 31.5943 34.7861 33.7422C31.5261 36.7226 27.8363 36.6636 23.7061 36.5996C22.6678 36.5836 21.3363 36.6585 20.3838 37.1406C17.1734 38.8214 17.5445 40.8391 17.5029 43.916C17.4418 48.4374 14.9656 52.1051 10.9912 54.1279C8.85828 55.1771 5.5569 55.9221 3.65625 54.0186C-0.159404 50.197 -1.55861 42.6879 2.25391 38.3818C5.42973 34.7951 9.83388 35.5176 14.1084 35.4092C19.4877 35.1093 18.0666 30.2407 18.4648 26.6514C19.1514 20.7826 24.4757 16.6334 30.249 16.7295C31.7255 16.6501 33.2033 16.8188 34.6768 16.6953C42.0437 16.0777 35.5892 6.19787 39.749 2.21777C41.6016 0.445316 42.2319 0.17818 44.6025 0.0205078ZM15.9756 3.50684C18.4383 3.45496 20.3516 4.8949 20.3027 7.5C20.2183 11.9922 17.4226 16.0316 13.4014 17.9473C12.086 18.5739 10.8561 18.7344 9.42676 18.9131C6.85255 18.9984 4.848 17.8382 4.81543 15.0645C4.73961 8.60148 9.73945 3.82937 15.9756 3.50684Z" fill="#FEFEFE"/>
</svg>
